<?xml version="1.0" encoding="utf-8"?>
<!-- Generator: Adobe Illustrator 25.2.3, SVG Export Plug-In . SVG Version: 6.00 Build 0)  -->
<svg version="1.1" id="Layer_1" xmlns="http://www.w3.org/2000/svg" xmlns:xlink="http://www.w3.org/1999/xlink" x="0px" y="0px"
	 viewBox="0 0 209 40" style="enable-background:new 0 0 209 40;" xml:space="preserve">
<style type="text/css">
	.st0{fill:none;stroke:#333333;}
	.st1{fill:#FFFFFF;}
	.st2{font-family:'MyriadPro-Regular';}
	.st3{font-size:12px;}
	.st4{fill:#FFFFFF;stroke:#231F20;stroke-width:0.5;stroke-linecap:round;stroke-linejoin:round;}
</style>
<path d="M0,5c0-2.8,2.2-5,5-5h199c2.8,0,5,2.2,5,5v30c0,2.8-2.2,5-5,5H5c-2.8,0-5-2.2-5-5V5z"/>
<line class="st0" x1="40.5" y1="0" x2="40.5" y2="40"/>
<text transform="matrix(1 0 0 1 45.5052 23.2003)" class="st1 st2 st3">Incubated by Vercel</text>
<g>
	<polygon class="st4" points="20.2,21.2 20.2,8.2 30.5,14.7 	"/>
	<polygon class="st4" points="20.2,21.2 20.2,8.2 10,14.6 	"/>
	<polygon class="st4" points="20.2,21.1 30.5,14.6 30.5,25.3 20.2,31.8 	"/>
	<polygon class="st4" points="20.2,21.1 10,14.6 10,25.3 20.2,31.8 	"/>
</g>
</svg>