<?xml version="1.0" encoding="utf-8"?>
<!-- Generator: Adobe Illustrator 25.3.1, SVG Export Plug-In . SVG Version: 6.00 Build 0)  -->
<svg version="1.1" id="Layer_1" xmlns="http://www.w3.org/2000/svg" xmlns:xlink="http://www.w3.org/1999/xlink" x="0px" y="0px"
	 viewBox="0 0 209 40" style="enable-background:new 0 0 209 40;" xml:space="preserve">
<style type="text/css">
	.st0{fill-rule:evenodd;clip-rule:evenodd;fill:#FFFFFF;}
	.st1{fill:none;stroke:#333333;}
	.st2{fill:#FFFFFF;}
</style>
<path d="M0,5c0-2.8,2.2-5,5-5h199c2.8,0,5,2.2,5,5v30c0,2.8-2.2,5-5,5H5c-2.8,0-5-2.2-5-5V5z"/>
<path class="st0" d="M20,13l8,14H12L20,13z"/>
<line class="st1" x1="40.5" y1="0" x2="40.5" y2="40"/>
<path class="st2" d="M53.3,26H55v-4.1h2.4c2.7,0,4-1.6,4-3.8c0-2.1-1.3-3.8-4-3.8h-4.1V26z M55,20.4v-4.6h2.2c1.7,0,2.4,0.9,2.4,2.3
	c0,1.3-0.7,2.3-2.4,2.3H55z M66.9,26.2c2.5,0,4.1-1.8,4.1-4.5c0-2.7-1.6-4.5-4.1-4.5s-4.1,1.8-4.1,4.5
	C62.9,24.4,64.5,26.2,66.9,26.2z M66.9,24.8c-1.6,0-2.4-1.4-2.4-3.1c0-1.7,0.8-3.1,2.4-3.1c1.6,0,2.3,1.4,2.3,3.1
	C69.3,23.3,68.5,24.8,66.9,24.8z M74.5,26h1.7l1.8-6.3h0.1l1.8,6.3h1.7l2.6-8.7h-1.8l-1.7,6.4h-0.1L79,17.3h-1.8l-1.7,6.4h-0.1
	l-1.7-6.4H72L74.5,26z M89.3,26.2c1.9,0,3.2-0.9,3.6-2.4l-1.6-0.3c-0.3,0.8-1,1.2-2,1.2c-1.5,0-2.4-0.9-2.5-2.6h6.2v-0.6
	c0-3.2-1.9-4.4-3.9-4.4c-2.4,0-4,1.9-4,4.5C85.2,24.4,86.8,26.2,89.3,26.2z M86.9,20.9c0.1-1.2,1-2.3,2.3-2.3c1.3,0,2.2,1,2.2,2.3
	H86.9z M95,26h1.7v-5.3c0-1.1,0.9-2,2.1-2c0.4,0,0.8,0.1,0.9,0.1v-1.6c-0.2,0-0.5,0-0.7,0c-1,0-1.9,0.6-2.2,1.5h-0.1v-1.4H95V26z
	 M104.6,26.2c1.9,0,3.2-0.9,3.6-2.4l-1.6-0.3c-0.3,0.8-1,1.2-2,1.2c-1.5,0-2.4-0.9-2.5-2.6h6.2v-0.6c0-3.2-1.9-4.4-3.9-4.4
	c-2.4,0-4,1.9-4,4.5C100.4,24.4,102,26.2,104.6,26.2z M102.1,20.9c0.1-1.2,1-2.3,2.3-2.3c1.3,0,2.2,1,2.2,2.3H102.1z M113.5,26.2
	c1.6,0,2.2-1,2.5-1.5h0.1V26h1.7V14.4h-1.7v4.3H116c-0.3-0.5-0.9-1.5-2.5-1.5c-2.1,0-3.7,1.7-3.7,4.5
	C109.8,24.5,111.3,26.2,113.5,26.2z M113.8,24.7c-1.5,0-2.3-1.3-2.3-3.1c0-1.7,0.8-3,2.3-3c1.5,0,2.3,1.2,2.3,3
	C116.1,23.5,115.3,24.7,113.8,24.7z M124.6,26h1.7v-1.4h0.1c0.3,0.6,0.9,1.5,2.5,1.5c2.1,0,3.6-1.7,3.6-4.5c0-2.8-1.6-4.5-3.7-4.5
	c-1.6,0-2.2,1-2.5,1.5h-0.1v-4.3h-1.7V26z M126.2,21.6c0-1.8,0.8-3,2.3-3c1.5,0,2.3,1.3,2.3,3c0,1.8-0.8,3.1-2.3,3.1
	C127.1,24.7,126.2,23.5,126.2,21.6z M135.2,29.2c1.4,0,2.3-0.7,2.8-2.1l3.6-9.9l-1.8,0l-2.2,6.8h-0.1l-2.2-6.8h-1.8l3.2,8.8
	l-0.2,0.6c-0.4,1.1-1,1.2-2,1l-0.4,1.4C134.3,29.2,134.7,29.2,135.2,29.2z M149.4,14.4h-2.7l4,11.6h3.2l4-11.6h-2.7l-2.8,8.8h-0.1
	L149.4,14.4z M162.2,26.2c2.2,0,3.6-1.1,4-2.7l-2.2-0.1c-0.2,0.7-0.9,1-1.7,1c-1.2,0-2-0.8-2-2.1v0h5.9v-0.7c0-3-1.8-4.4-4.1-4.4
	c-2.6,0-4.2,1.8-4.2,4.5C157.9,24.4,159.5,26.2,162.2,26.2z M160.3,20.8c0.1-1,0.8-1.8,1.9-1.8c1.1,0,1.8,0.8,1.8,1.8H160.3z
	 M167.8,26h2.4v-4.9c0-1.1,0.8-1.8,1.9-1.8c0.3,0,0.8,0.1,1,0.1v-2.1c-0.2-0.1-0.5-0.1-0.8-0.1c-1,0-1.8,0.6-2.1,1.6h-0.1v-1.5h-2.3
	V26z M177.9,26.2c2.3,0,3.8-1.4,3.9-3.4h-2.3c-0.1,0.9-0.8,1.5-1.6,1.5c-1.1,0-1.9-0.9-1.9-2.6c0-1.6,0.7-2.6,1.9-2.6
	c0.9,0,1.5,0.6,1.6,1.5h2.3c-0.1-2-1.6-3.3-3.9-3.3c-2.6,0-4.3,1.8-4.3,4.5C173.6,24.3,175.2,26.2,177.9,26.2z M187.3,26.2
	c2.2,0,3.6-1.1,4-2.7l-2.2-0.1c-0.2,0.7-0.9,1-1.7,1c-1.2,0-2-0.8-2-2.1v0h5.9v-0.7c0-3-1.8-4.4-4.1-4.4c-2.6,0-4.2,1.8-4.2,4.5
	C183,24.4,184.6,26.2,187.3,26.2z M185.4,20.8c0.1-1,0.8-1.8,1.9-1.8c1.1,0,1.8,0.8,1.8,1.8H185.4z M195.3,14.4h-2.4V26h2.4V14.4z"
	/>
</svg>
